<?xml version="1.0" encoding="utf-8"?>
<svg id="master-artboard" viewBox="0 0 372.1483154296875 220" version="1.1" xmlns="http://www.w3.org/2000/svg" x="0px" y="0px" style="enable-background:new 0 0 1400 980;" width="372.1483154296875px" height="220px" xmlns:xlink="http://www.w3.org/1999/xlink"><defs><linearGradient id="5868a8ae-9641-4bfb-a3e0-87c9707ff455" x1="684.96" y1="708.77" x2="684.96" y2="685.5" gradientTransform="translate(0.36 -0.19)" gradientUnits="userSpaceOnUse"><stop offset="0" stop-color="gray" stop-opacity="0.25"/><stop offset="0.54" stop-color="gray" stop-opacity="0.12"/><stop offset="1" stop-color="gray" stop-opacity="0.1"/></linearGradient><linearGradient id="2dc439d3-206c-40ba-88b3-0b09748d0dcc" x1="685.09" y1="578.57" x2="685.09" y2="157.81" gradientTransform="matrix(1, 0, 0, 1.04, -0.63, -19.87)" xlink:href="#5868a8ae-9641-4bfb-a3e0-87c9707ff455"/><linearGradient id="33b509d6-5684-4d10-a2d7-992d23792513" x1="439.04" y1="749.29" x2="439.04" y2="297.39" gradientTransform="matrix(1, 0, 0, 1.02, 0.11, -11.28)" xlink:href="#5868a8ae-9641-4bfb-a3e0-87c9707ff455"/><linearGradient id="c7762558-8ab5-4e43-8750-831a04cd0054" x1="439.56" y1="710.94" x2="439.56" y2="331.91" gradientTransform="matrix(1, 0, 0, 1.02, 0.11, -11.28)" gradientUnits="userSpaceOnUse"><stop offset="0" stop-opacity="0.09"/><stop offset="0.55" stop-opacity="0.07"/><stop offset="1" stop-opacity="0.02"/></linearGradient><linearGradient id="fd9cbc55-269a-4233-8dd0-3aded2a6d9e7" x1="290.89" y1="757.14" x2="290.89" y2="406.12" gradientTransform="matrix(1, 0, 0, 1.02, 0.19, -12.23)" xlink:href="#5868a8ae-9641-4bfb-a3e0-87c9707ff455"/></defs><rect id="ee-background" x="0" y="0" width="372.1483154296875" height="220" style="fill: white; fill-opacity: 0; pointer-events: none;"/><g transform="matrix(0.35746782647744024, 0, 0, 0.35746782647744024, 40.53649280830257, 0)"><title>Devices</title><path d="M765.64,538.41S781.71,648.5,875.73,685.08l-190.34.26-190.34.26c93.92-36.83,109.71-147,109.71-147Z" transform="translate(-192.86 -142.28)" fill="#e0e0e0"/><path d="M 493.160004 685.340027 H 877.420013 V 708.600027 H 493.160004 V 685.340027 Z" transform="translate(-193.82 -141.33) rotate(-0.08)" fill="url(#5868a8ae-9641-4bfb-a3e0-87c9707ff455)"/><path d="M 495.070007 685.340027 H 875.740021 V 703.280027 H 495.070007 V 685.340027 Z" transform="translate(-193.82 -141.33) rotate(-0.08)" fill="#f5f5f5"/><path d="M994.22,142.28l-619.08.85c-6.85,0-12.4,5.83-12.39,13l.48,361.19,0,12c0,27.44,21.33,49.66,47.55,49.62l548.93-.76c26.23,0,47.46-22.31,47.42-49.75l0-12-.48-361.19C1006.64,148.07,1001.07,142.27,994.22,142.28Z" transform="translate(-192.86 -142.28)" fill="url(#2dc439d3-206c-40ba-88b3-0b09748d0dcc)"/><path d="M381.51,153.13H988.35a10.75,10.75,0,0,1,10.75,10.75V509.16a0,0,0,0,1,0,0H370.75a0,0,0,0,1,0,0V163.88a10.75,10.75,0,0,1,10.75-10.75Z" transform="matrix(1, 0, 0, 1, -193.32, -141.33)" fill="#fff"/><path d="M958.26,567.51l-546,.75A41.15,41.15,0,0,1,371,527.17l0-17.57,628.35-.87,0,17.58A41.15,41.15,0,0,1,958.26,567.51Z" transform="translate(-192.86 -142.28)" fill="#f5f5f5"/><path d="M 401.809998 181.960007 H 970.429993 V 469.37001 H 401.809998 V 181.960007 Z" transform="translate(-193.31 -141.33) rotate(-0.08)" fill="#feb377"/><path d="M 308.300005 290.709991 H 569.960005 A 17.17 17.17 0 0 1 587.130005 307.879992 V 732.379988 A 17.17 17.17 0 0 1 569.960005 749.549988 H 308.300005 A 17.17 17.17 0 0 1 291.130005 732.379988 V 307.879992 A 17.17 17.17 0 0 1 308.300005 290.709991 Z" transform="translate(-193.58 -141.67) rotate(-0.08)" fill="url(#33b509d6-5684-4d10-a2d7-992d23792513)"/><path d="M 311.850006 325.76001 H 567.470001 V 710.600006 H 311.850006 V 325.76001 Z" transform="translate(-193.58 -141.67) rotate(-0.08)" fill="url(#c7762558-8ab5-4e43-8750-831a04cd0054)"/><path d="M 317.300005 297.649994 H 560.949995 A 17.17 17.17 0 0 1 578.119995 314.819994 V 718.189985 A 17.17 17.17 0 0 1 560.949995 735.359985 H 317.300005 A 17.17 17.17 0 0 1 300.130005 718.189985 V 314.819994 A 17.17 17.17 0 0 1 317.300005 297.649994 Z" transform="translate(-193.57 -141.67) rotate(-0.08)" fill="#fff"/><path d="M 319.589996 331.089996 H 559.649994 V 698.209991 H 319.589996 V 331.089996 Z" transform="matrix(1, 0, 0, 1, -193.57, -141.67)" fill="#feb377"/><path d="M 450.430009 716.440002 A 9.89 10.13 0 0 1 440.540009 726.570003 A 9.89 10.13 0 0 1 430.650008 716.440002 A 9.89 10.13 0 0 1 440.540009 706.310002 A 9.89 10.13 0 0 1 450.430009 716.440002 Z" transform="matrix(1, 0, 0, 1, -193.85, -141.67)" fill="#dbdbdb"/><path d="M 401.109998 315.269989 A 3.3 3.38 0 0 1 397.809998 318.649989 A 3.3 3.38 0 0 1 394.509998 315.269989 A 3.3 3.38 0 0 1 397.809998 311.889989 A 3.3 3.38 0 0 1 401.109998 315.269989 Z" transform="translate(-193.3 -141.73) rotate(-0.08)" fill="#dbdbdb"/><path d="M 415.720008 313.190002 H 455.730008 A 1.43 1.43 0 0 1 457.160007 314.620002 V 315.140003 A 1.43 1.43 0 0 1 455.730008 316.570003 H 415.720008 A 1.43 1.43 0 0 1 414.290009 315.140003 V 314.620002 A 1.43 1.43 0 0 1 415.720008 313.190002 Z" transform="translate(-193.3 -141.68) rotate(-0.08)" fill="#dbdbdb"/><path d="M 203.080002 400.709991 H 379.040009 A 10 10 0 0 1 389.040009 410.709991 V 747.600006 A 10 10 0 0 1 379.040009 757.600006 H 203.080002 A 10 10 0 0 1 193.080002 747.600006 V 410.709991 A 10 10 0 0 1 203.080002 400.709991 Z" transform="translate(-193.66 -141.88) rotate(-0.08)" fill="url(#fd9cbc55-269a-4233-8dd0-3aded2a6d9e7)"/><path d="M 207.600006 406.589996 H 374.540009 A 10 10 0 0 1 384.540009 416.589996 V 739.329987 A 10 10 0 0 1 374.540009 749.329987 H 207.600006 A 10 10 0 0 1 197.600006 739.329987 V 416.589996 A 10 10 0 0 1 207.600006 406.589996 Z" transform="translate(-193.66 -141.88) rotate(-0.08)" fill="#fff"/><path d="M 218.690002 430.820007 H 363.419998 V 709.740021 H 218.690002 V 430.820007 Z" transform="translate(-193.65 -141.88) rotate(-0.08)" fill="#feb377"/><path d="M 302.80001 729.830017 A 11.54 11.82 0 0 1 291.26001 741.650017 A 11.54 11.82 0 0 1 279.72001 729.830017 A 11.54 11.82 0 0 1 291.26001 718.010017 A 11.54 11.82 0 0 1 302.80001 729.830017 Z" transform="matrix(1, 0, 0, 1, -193.87, -141.88)" fill="#dbdbdb"/><path d="M 271.239993 417.850006 A 2.31 2.36 0 0 1 268.929993 420.210006 A 2.31 2.36 0 0 1 266.619993 417.850006 A 2.31 2.36 0 0 1 268.929993 415.490006 A 2.31 2.36 0 0 1 271.239993 417.850006 Z" transform="translate(-193.44 -141.91) rotate(-0.08)" fill="#dbdbdb"/><path d="M 280.809998 416.029999 H 313.579998 A 1.5 1.5 0 0 1 315.079998 417.529999 V 418.079999 A 1.5 1.5 0 0 1 313.579998 419.579999 H 280.809998 A 1.5 1.5 0 0 1 279.309998 418.079999 V 417.529999 A 1.5 1.5 0 0 1 280.809998 416.029999 Z" transform="translate(-193.44 -141.87) rotate(-0.08)" fill="#dbdbdb"/></g></svg>