<?xml version="1.0" encoding="utf-8"?>
<svg id="master-artboard" viewBox="0 0 372.1483154296875 220" version="1.1" xmlns="http://www.w3.org/2000/svg" x="0px" y="0px" style="enable-background:new 0 0 1400 980;" width="372.1483154296875px" height="220px"><rect id="ee-background" x="0" y="0" width="372.1483154296875" height="220" style="fill: white; fill-opacity: 0; pointer-events: none;"/><g transform="matrix(0.4153195917606354, 0, 0, 0.41195571422576904, -1.148315668106079, 9.687019348144531)"><title>breakfast</title><path d="M275.41211,460.30048H246.99329a3.76777,3.76777,0,0,0-3.76777,3.76776v12.47387a3.76777,3.76777,0,0,0,3.76777,3.76777h4.70941V499h19V480.30988h4.70941a3.76777,3.76777,0,0,0,3.76776-3.76777V464.06824A3.76777,3.76777,0,0,0,275.41211,460.30048Z" transform="translate(-156 -207.2555)" fill="#feb377"/><path d="M303.87661,574.46128a146.10549,146.10549,0,0,1-25.418-86.62437,3.08142,3.08142,0,0,0-2.40522-3.075V479.372H246.03933v5.315h-.41356a3.07971,3.07971,0,0,0-3.06724,3.30786q3.54683,49.44186-23.95358,88.677a8.4873,8.4873,0,0,0-1.53606,5.14352l3.28188,101.51817a8.78815,8.78815,0,0,0,8.713,8.48191h67.88732a8.79123,8.79123,0,0,0,8.71824-8.63152l1.26471-98.56588A17.78875,17.78875,0,0,0,303.87661,574.46128Z" transform="translate(-156 -207.2555)" fill="#3f3d56"/><path d="M269.48783,464.36493a8.12881,8.12881,0,0,1-16.25763,0" transform="translate(-156 -207.2555)" opacity="0.2"/><path d="M293.12991,608.18244h-8.22064a21.57614,21.57614,0,0,0-42.6488,0h-8.22118a6.06671,6.06671,0,0,0-5.99616,6.98918l8.92944,58.04135h51.27407l10.84608-57.84582A6.0667,6.0667,0,0,0,293.12991,608.18244Z" transform="translate(-156 -207.2555)" fill="#feb377"/><path d="M 827.9520263671875 307.6340026855469 L 825.97998046875 386.447998046875 L 823.5380249023438 484.1809997558594 L 740.4140014648438 484.1809997558594 L 737.552001953125 369.67498779296875 L 736 307.6340026855469 L 827.9520263671875 307.6340026855469 Z" fill="#e6e6e6"/><path d="M 775.723145 265.703918 H 787.492954 V 421.653946 H 775.723145 V 265.703918 Z" fill="#feb377"/><path d="M978.06676,574.27527l-2.22611,112.02H900.07391l-2.60826-131.24365a51.63393,51.63393,0,0,1,40.82688,5.61536C950.95161,568.15405,965.173,572.18424,978.06676,574.27527Z" transform="translate(-156 -207.2555)" fill="#3f3d56"/><path d="M 752.030762 379.63031 H 762.830682 V 390.43023 H 752.030762 V 379.63031 Z" fill="#e6e6e6"/><path d="M 759.386902 357.56192 H 770.186822 V 368.36184 H 759.386902 V 357.56192 Z" fill="#e6e6e6"/><path d="M 936.423828 575.815613 H 947.223748 V 586.615533 H 936.423828 V 575.815613 Z" transform="translate(375.57517 -653.92108) rotate(36.56259)" fill="#e6e6e6"/><path d="M 955.936768 594.951294 H 966.736688 V 605.751214 H 955.936768 V 594.951294 Z" transform="translate(390.81432 -661.77916) rotate(36.56259)" fill="#e6e6e6"/><path d="M 922.834167 605.985535 H 933.634088 V 616.785455 H 922.834167 V 605.985535 Z" transform="translate(390.87303 -639.88846) rotate(36.56259)" fill="#e6e6e6"/><path d="M 807.354484 351.035095 A 2.20684 2.20684 0 0 1 805.147644 353.241935 A 2.20684 2.20684 0 0 1 802.940804 351.035095 A 2.20684 2.20684 0 0 1 805.147644 348.828255 A 2.20684 2.20684 0 0 1 807.354484 351.035095 Z" fill="#3f3d56"/><path d="M 762.482109 336.322815 A 2.20684 2.20684 0 0 1 760.275269 338.529655 A 2.20684 2.20684 0 0 1 758.068429 336.322815 A 2.20684 2.20684 0 0 1 760.275269 334.115975 A 2.20684 2.20684 0 0 1 762.482109 336.322815 Z" fill="#3f3d56"/><path d="M 799.998344 320.874939 A 2.20684 2.20684 0 0 1 797.791504 323.081779 A 2.20684 2.20684 0 0 1 795.584664 320.874939 A 2.20684 2.20684 0 0 1 797.791504 318.668099 A 2.20684 2.20684 0 0 1 799.998344 320.874939 Z" fill="#3f3d56"/><path d="M 686.2621 241.754013 A 241.754013 241.754013 0 0 1 444.508087 483.508026 A 241.754013 241.754013 0 0 1 202.754074 241.754013 A 241.754013 241.754013 0 0 1 444.508087 0 A 241.754013 241.754013 0 0 1 686.2621 241.754013 Z" fill="#feb377"/><path d="M600.50808,625.46663a176.45595,176.45595,0,1,1,124.77436-51.68275A175.30352,175.30352,0,0,1,600.50808,625.46663Zm0-342.0314c-91.29808,0-165.5743,74.27621-165.5743,165.57429,0,91.2977,74.27622,165.5743,165.5743,165.5743,91.2977,0,165.57429-74.2766,165.57429-165.5743C766.08237,357.71144,691.80578,283.43523,600.50808,283.43523Z" transform="translate(-156 -207.2555)" opacity="0.2"/><path d="M 615.523788 241.754013 A 171.015701 171.015701 0 0 1 444.508087 412.769714 A 171.015701 171.015701 0 0 1 273.492386 241.754013 A 171.015701 171.015701 0 0 1 444.508087 70.738312 A 171.015701 171.015701 0 0 1 615.523788 241.754013 Z" fill="#3f3d56"/><path d="M473.32742,380.62742a21.704,21.704,0,1,1,38.68118-19.69819l48.31632,94.87836a21.704,21.704,0,1,1-38.68118,19.69819Z" transform="translate(-156 -207.2555)" fill="#ff6584"/><path d="M478.71655,391.21l-2.23-4.379c11.12916-8.64736,24.19788-15.007,38.68118-19.69819l2.23,4.379C501.72232,374.77607,488.38616,380.817,478.71655,391.21Z" transform="translate(-156 -207.2555)" opacity="0.2"/><path d="M489.12314,411.64534l-2.23-4.379c11.12915-8.64736,24.19788-15.007,38.68117-19.69819l2.23,4.379C512.12891,395.21141,498.79275,401.25236,489.12314,411.64534Z" transform="translate(-156 -207.2555)" opacity="0.2"/><path d="M499.52973,432.08068l-2.23-4.379c11.12915-8.64736,24.19788-15.007,38.68118-19.69819l2.23,4.379C522.5355,415.64675,509.19935,421.6877,499.52973,432.08068Z" transform="translate(-156 -207.2555)" opacity="0.2"/><path d="M509.93632,452.516l-2.23-4.379c11.12916-8.64736,24.19788-15.007,38.68118-19.69819l2.23,4.379C532.94209,436.08209,519.60594,442.123,509.93632,452.516Z" transform="translate(-156 -207.2555)" opacity="0.2"/><path d="M520.34292,472.95136l-2.23-4.379c11.12916-8.64736,24.19788-15.007,38.68118-19.69819l2.23,4.379C543.34868,456.51743,530.01253,462.55838,520.34292,472.95136Z" transform="translate(-156 -207.2555)" opacity="0.2"/><path d="M437.07906,416.14643a21.704,21.704,0,1,1,38.68118-19.6982l48.31632,94.87837a21.704,21.704,0,0,1-38.68118,19.69819Z" transform="translate(-156 -207.2555)" fill="#ff6584"/><path d="M442.46819,426.729l-2.23-4.379c11.12916-8.64736,24.19788-15.007,38.68118-19.69819l2.23,4.379C465.474,410.29508,452.1378,416.336,442.46819,426.729Z" transform="translate(-156 -207.2555)" opacity="0.2"/><path d="M452.87478,447.16435l-2.23-4.379c11.12915-8.64736,24.19788-15.007,38.68118-19.69819l2.23,4.379C475.88055,430.73042,462.5444,436.77137,452.87478,447.16435Z" transform="translate(-156 -207.2555)" opacity="0.2"/><path d="M463.28137,467.59969l-2.23-4.379c11.12915-8.64736,24.19788-15.007,38.68118-19.69819l2.23,4.379C486.28714,451.16576,472.951,457.20671,463.28137,467.59969Z" transform="translate(-156 -207.2555)" opacity="0.2"/><path d="M473.688,488.035l-2.23-4.379c11.12916-8.64736,24.19788-15.007,38.68118-19.69819l2.23,4.379C496.69373,471.6011,483.35758,477.64205,473.688,488.035Z" transform="translate(-156 -207.2555)" opacity="0.2"/><path d="M484.09456,508.47037l-2.23-4.379c11.12916-8.64736,24.19788-15.007,38.68118-19.69819l2.23,4.379C507.10032,492.03644,493.76417,498.07739,484.09456,508.47037Z" transform="translate(-156 -207.2555)" opacity="0.2"/><path d="M714.77766,454.45093l.15257.00013a25.8881,25.8881,0,0,0,24.23924-16.23619,84.50284,84.50284,0,0,0,5.9231-31.69393c-.27144-45.91073-37.62223-83.57515-83.52936-84.21021a84.74394,84.74394,0,0,0-35.27687,162.32018,25.66668,25.66668,0,0,0,28.50566-5.28585A84.45815,84.45815,0,0,1,714.77766,454.45093Z" transform="translate(-156 -207.2555)" fill="#e6e6e6"/><path d="M 543.230789 193.558685 A 27.98439 27.98439 0 0 1 515.246399 221.543076 A 27.98439 27.98439 0 0 1 487.262009 193.558685 A 27.98439 27.98439 0 0 1 515.246399 165.574295 A 27.98439 27.98439 0 0 1 543.230789 193.558685 Z" fill="#f9a825"/><path d="M 457.722929 187.115158 A 3.29669 3.29669 0 0 1 454.426239 190.411848 A 3.29669 3.29669 0 0 1 451.129549 187.115158 A 3.29669 3.29669 0 0 1 454.426239 183.818468 A 3.29669 3.29669 0 0 1 457.722929 187.115158 Z" fill="#3f3d56"/><path d="M 348.894743 190.224533 A 3.29669 3.29669 0 0 1 345.598053 193.521223 A 3.29669 3.29669 0 0 1 342.301363 190.224533 A 3.29669 3.29669 0 0 1 345.598053 186.927843 A 3.29669 3.29669 0 0 1 348.894743 190.224533 Z" fill="#3f3d56"/><path d="M 475.292784 152.949478 A 3.29669 3.29669 0 0 1 471.996094 156.246168 A 3.29669 3.29669 0 0 1 468.699404 152.949478 A 3.29669 3.29669 0 0 1 471.996094 149.652788 A 3.29669 3.29669 0 0 1 475.292784 152.949478 Z" fill="#3f3d56"/><path d="M 475.199125 247.972763 A 3.29669 3.29669 0 0 1 471.902435 251.269453 A 3.29669 3.29669 0 0 1 468.605745 247.972763 A 3.29669 3.29669 0 0 1 471.902435 244.676073 A 3.29669 3.29669 0 0 1 475.199125 247.972763 Z" fill="#3f3d56"/><path d="M 540.496031 146.140686 A 3.29669 3.29669 0 0 1 537.199341 149.437376 A 3.29669 3.29669 0 0 1 533.902651 146.140686 A 3.29669 3.29669 0 0 1 537.199341 142.843996 A 3.29669 3.29669 0 0 1 540.496031 146.140686 Z" fill="#3f3d56"/><path d="M 327.503752 236.312607 A 3.29669 3.29669 0 0 1 324.207062 239.609297 A 3.29669 3.29669 0 0 1 320.910372 236.312607 A 3.29669 3.29669 0 0 1 324.207062 233.015917 A 3.29669 3.29669 0 0 1 327.503752 236.312607 Z" fill="#3f3d56"/><path d="M 351.601408 283.730591 A 3.29669 3.29669 0 0 1 348.304718 287.027281 A 3.29669 3.29669 0 0 1 345.008028 283.730591 A 3.29669 3.29669 0 0 1 348.304718 280.433901 A 3.29669 3.29669 0 0 1 351.601408 283.730591 Z" fill="#3f3d56"/><path d="M 512.137033 289.949341 A 12.43751 12.43751 0 0 1 499.699524 302.38685 A 12.43751 12.43751 0 0 1 487.262014 289.949341 A 12.43751 12.43751 0 0 1 499.699524 277.511831 A 12.43751 12.43751 0 0 1 512.137033 289.949341 Z" fill="#ff6584"/><path d="M665.02764,497.9822a9.32813,9.32813,0,0,1-18.65626,0" transform="translate(-156 -207.2555)" opacity="0.2"/><path d="M646.37138,496.42751a9.32813,9.32813,0,0,1,18.65626,0" transform="translate(-156 -207.2555)" opacity="0.2"/><path d="M 495.812801 285.67395 A 0.77734 1.16602 0 0 1 495.035461 286.83997 A 0.77734 1.16602 0 0 1 494.258121 285.67395 A 0.77734 1.16602 0 0 1 495.035461 284.50793 A 0.77734 1.16602 0 0 1 495.812801 285.67395 Z" fill="#ff6584"/><path d="M 500.476864 284.119263 A 0.77734 1.16602 0 0 1 499.699524 285.285283 A 0.77734 1.16602 0 0 1 498.922184 284.119263 A 0.77734 1.16602 0 0 1 499.699524 282.953243 A 0.77734 1.16602 0 0 1 500.476864 284.119263 Z" fill="#ff6584"/><path d="M 500.476864 294.224762 A 0.77734 1.16602 0 0 1 499.699524 295.390782 A 0.77734 1.16602 0 0 1 498.922184 294.224762 A 0.77734 1.16602 0 0 1 499.699524 293.058742 A 0.77734 1.16602 0 0 1 500.476864 294.224762 Z" fill="#ff6584"/><path d="M 505.140896 288.005981 A 0.77734 1.16602 0 0 1 504.363556 289.172001 A 0.77734 1.16602 0 0 1 503.586216 288.005981 A 0.77734 1.16602 0 0 1 504.363556 286.839961 A 0.77734 1.16602 0 0 1 505.140896 288.005981 Z" fill="#ff6584"/><path d="M 504.363583 296.556793 A 0.77734 1.16602 0 0 1 503.586243 297.722813 A 0.77734 1.16602 0 0 1 502.808903 296.556793 A 0.77734 1.16602 0 0 1 503.586243 295.390773 A 0.77734 1.16602 0 0 1 504.363583 296.556793 Z" fill="#ff6584"/><path d="M 495.035427 292.670074 A 0.77734 1.16602 0 0 1 494.258087 293.836094 A 0.77734 1.16602 0 0 1 493.480747 292.670074 A 0.77734 1.16602 0 0 1 494.258087 291.504054 A 0.77734 1.16602 0 0 1 495.035427 292.670074 Z" fill="#ff6584"/><path d="M 537.012033 256.52356 A 12.43751 12.43751 0 0 1 524.574524 268.961069 A 12.43751 12.43751 0 0 1 512.137014 256.52356 A 12.43751 12.43751 0 0 1 524.574524 244.08605 A 12.43751 12.43751 0 0 1 537.012033 256.52356 Z" fill="#ff6584"/><path d="M689.90265,464.5564a9.32813,9.32813,0,0,1-18.65626,0" transform="translate(-156 -207.2555)" opacity="0.2"/><path d="M671.24639,463.00172a9.32813,9.32813,0,0,1,18.65626,0" transform="translate(-156 -207.2555)" opacity="0.2"/><path d="M 520.687801 252.248154 A 0.77734 1.16602 0 0 1 519.910461 253.414174 A 0.77734 1.16602 0 0 1 519.133121 252.248154 A 0.77734 1.16602 0 0 1 519.910461 251.082134 A 0.77734 1.16602 0 0 1 520.687801 252.248154 Z" fill="#ff6584"/><path d="M 525.351864 250.693481 A 0.77734 1.16602 0 0 1 524.574524 251.859501 A 0.77734 1.16602 0 0 1 523.797184 250.693481 A 0.77734 1.16602 0 0 1 524.574524 249.527461 A 0.77734 1.16602 0 0 1 525.351864 250.693481 Z" fill="#ff6584"/><path d="M 525.351864 260.79895 A 0.77734 1.16602 0 0 1 524.574524 261.96497 A 0.77734 1.16602 0 0 1 523.797184 260.79895 A 0.77734 1.16602 0 0 1 524.574524 259.63293 A 0.77734 1.16602 0 0 1 525.351864 260.79895 Z" fill="#ff6584"/><path d="M 530.015926 254.5802 A 0.77734 1.16602 0 0 1 529.238586 255.74622 A 0.77734 1.16602 0 0 1 528.461246 254.5802 A 0.77734 1.16602 0 0 1 529.238586 253.41418 A 0.77734 1.16602 0 0 1 530.015926 254.5802 Z" fill="#ff6584"/><path d="M 529.238583 263.130981 A 0.77734 1.16602 0 0 1 528.461243 264.297001 A 0.77734 1.16602 0 0 1 527.683903 263.130981 A 0.77734 1.16602 0 0 1 528.461243 261.964961 A 0.77734 1.16602 0 0 1 529.238583 263.130981 Z" fill="#ff6584"/><path d="M 519.910458 259.244263 A 0.77734 1.16602 0 0 1 519.133118 260.410283 A 0.77734 1.16602 0 0 1 518.355778 259.244263 A 0.77734 1.16602 0 0 1 519.133118 258.078243 A 0.77734 1.16602 0 0 1 519.910458 259.244263 Z" fill="#ff6584"/><path d="M 561.887033 273.625122 A 12.43751 12.43751 0 0 1 549.449524 286.062632 A 12.43751 12.43751 0 0 1 537.012014 273.625122 A 12.43751 12.43751 0 0 1 549.449524 261.187613 A 12.43751 12.43751 0 0 1 561.887033 273.625122 Z" fill="#feb377"/><path d="M714.77766,481.658a9.32813,9.32813,0,0,1-18.65626,0" transform="translate(-156 -207.2555)" opacity="0.2"/><path d="M696.1214,480.10329a9.32813,9.32813,0,0,1,18.65626,0" transform="translate(-156 -207.2555)" opacity="0.2"/><path d="M 545.562801 269.349731 A 0.77734 1.16602 0 0 1 544.785461 270.515751 A 0.77734 1.16602 0 0 1 544.008121 269.349731 A 0.77734 1.16602 0 0 1 544.785461 268.183711 A 0.77734 1.16602 0 0 1 545.562801 269.349731 Z" fill="#feb377"/><path d="M 550.226864 267.795044 A 0.77734 1.16602 0 0 1 549.449524 268.961064 A 0.77734 1.16602 0 0 1 548.672184 267.795044 A 0.77734 1.16602 0 0 1 549.449524 266.629024 A 0.77734 1.16602 0 0 1 550.226864 267.795044 Z" fill="#feb377"/><path d="M 550.226864 277.900513 A 0.77734 1.16602 0 0 1 549.449524 279.066533 A 0.77734 1.16602 0 0 1 548.672184 277.900513 A 0.77734 1.16602 0 0 1 549.449524 276.734493 A 0.77734 1.16602 0 0 1 550.226864 277.900513 Z" fill="#feb377"/><path d="M 554.890926 271.681763 A 0.77734 1.16602 0 0 1 554.113586 272.847783 A 0.77734 1.16602 0 0 1 553.336246 271.681763 A 0.77734 1.16602 0 0 1 554.113586 270.515743 A 0.77734 1.16602 0 0 1 554.890926 271.681763 Z" fill="#feb377"/><path d="M 554.113583 280.232544 A 0.77734 1.16602 0 0 1 553.336243 281.398564 A 0.77734 1.16602 0 0 1 552.558903 280.232544 A 0.77734 1.16602 0 0 1 553.336243 279.066524 A 0.77734 1.16602 0 0 1 554.113583 280.232544 Z" fill="#feb377"/><path d="M 544.785458 276.345825 A 0.77734 1.16602 0 0 1 544.008118 277.511845 A 0.77734 1.16602 0 0 1 543.230778 276.345825 A 0.77734 1.16602 0 0 1 544.008118 275.179805 A 0.77734 1.16602 0 0 1 544.785458 276.345825 Z" fill="#feb377"/><path d="M 499.699503 275.17981 A 12.43751 12.43751 0 0 1 487.261993 287.617319 A 12.43751 12.43751 0 0 1 474.824484 275.17981 A 12.43751 12.43751 0 0 1 487.261993 262.7423 A 12.43751 12.43751 0 0 1 499.699503 275.17981 Z" fill="#feb377"/><path d="M652.59013,483.21266a9.32813,9.32813,0,0,1-18.65626,0" transform="translate(-156 -207.2555)" opacity="0.2"/><path d="M633.93387,481.658a9.32813,9.32813,0,0,1,18.65626,0" transform="translate(-156 -207.2555)" opacity="0.2"/><path d="M 483.375271 270.904419 A 0.77734 1.16602 0 0 1 482.597931 272.070439 A 0.77734 1.16602 0 0 1 481.820591 270.904419 A 0.77734 1.16602 0 0 1 482.597931 269.738399 A 0.77734 1.16602 0 0 1 483.375271 270.904419 Z" fill="#feb377"/><path d="M 488.039333 269.349731 A 0.77734 1.16602 0 0 1 487.261993 270.515751 A 0.77734 1.16602 0 0 1 486.484653 269.349731 A 0.77734 1.16602 0 0 1 487.261993 268.183711 A 0.77734 1.16602 0 0 1 488.039333 269.349731 Z" fill="#feb377"/><path d="M 488.039333 279.4552 A 0.77734 1.16602 0 0 1 487.261993 280.62122 A 0.77734 1.16602 0 0 1 486.484653 279.4552 A 0.77734 1.16602 0 0 1 487.261993 278.28918 A 0.77734 1.16602 0 0 1 488.039333 279.4552 Z" fill="#feb377"/><path d="M 492.703396 273.23645 A 0.77734 1.16602 0 0 1 491.926056 274.40247 A 0.77734 1.16602 0 0 1 491.148716 273.23645 A 0.77734 1.16602 0 0 1 491.926056 272.07043 A 0.77734 1.16602 0 0 1 492.703396 273.23645 Z" fill="#feb377"/><path d="M 491.926052 281.787231 A 0.77734 1.16602 0 0 1 491.148712 282.953251 A 0.77734 1.16602 0 0 1 490.371372 281.787231 A 0.77734 1.16602 0 0 1 491.148712 280.621211 A 0.77734 1.16602 0 0 1 491.926052 281.787231 Z" fill="#feb377"/><path d="M 482.597927 277.900513 A 0.77734 1.16602 0 0 1 481.820587 279.066533 A 0.77734 1.16602 0 0 1 481.043247 277.900513 A 0.77734 1.16602 0 0 1 481.820587 276.734493 A 0.77734 1.16602 0 0 1 482.597927 277.900513 Z" fill="#feb377"/><path d="M 527.683908 280.621216 A 12.43751 12.43751 0 0 1 515.246399 293.058725 A 12.43751 12.43751 0 0 1 502.808889 280.621216 A 12.43751 12.43751 0 0 1 515.246399 268.183706 A 12.43751 12.43751 0 0 1 527.683908 280.621216 Z" fill="#feb377"/><path d="M680.57452,488.65407a9.32813,9.32813,0,1,1-18.65626,0" transform="translate(-156 -207.2555)" opacity="0.2"/><path d="M661.91826,487.09938a9.32813,9.32813,0,1,1,18.65626,0" transform="translate(-156 -207.2555)" opacity="0.2"/><path d="M 511.359676 276.345825 A 0.77734 1.16602 0 0 1 510.582336 277.511845 A 0.77734 1.16602 0 0 1 509.804996 276.345825 A 0.77734 1.16602 0 0 1 510.582336 275.179805 A 0.77734 1.16602 0 0 1 511.359676 276.345825 Z" fill="#feb377"/><path d="M 516.023739 274.791138 A 0.77734 1.16602 0 0 1 515.246399 275.957158 A 0.77734 1.16602 0 0 1 514.469059 274.791138 A 0.77734 1.16602 0 0 1 515.246399 273.625118 A 0.77734 1.16602 0 0 1 516.023739 274.791138 Z" fill="#feb377"/><path d="M 516.023739 284.896606 A 0.77734 1.16602 0 0 1 515.246399 286.062626 A 0.77734 1.16602 0 0 1 514.469059 284.896606 A 0.77734 1.16602 0 0 1 515.246399 283.730586 A 0.77734 1.16602 0 0 1 516.023739 284.896606 Z" fill="#feb377"/><path d="M 520.687801 278.677856 A 0.77734 1.16602 0 0 1 519.910461 279.843876 A 0.77734 1.16602 0 0 1 519.133121 278.677856 A 0.77734 1.16602 0 0 1 519.910461 277.511836 A 0.77734 1.16602 0 0 1 520.687801 278.677856 Z" fill="#feb377"/><path d="M 519.910458 287.228638 A 0.77734 1.16602 0 0 1 519.133118 288.394658 A 0.77734 1.16602 0 0 1 518.355778 287.228638 A 0.77734 1.16602 0 0 1 519.133118 286.062618 A 0.77734 1.16602 0 0 1 519.910458 287.228638 Z" fill="#feb377"/><path d="M 510.582333 283.341919 A 0.77734 1.16602 0 0 1 509.804993 284.507939 A 0.77734 1.16602 0 0 1 509.027653 283.341919 A 0.77734 1.16602 0 0 1 509.804993 282.175899 A 0.77734 1.16602 0 0 1 510.582333 283.341919 Z" fill="#feb377"/><path d="M 547.117502 293.83606 A 12.43751 12.43751 0 0 1 534.679993 306.273569 A 12.43751 12.43751 0 0 1 522.242483 293.83606 A 12.43751 12.43751 0 0 1 534.679993 281.39855 A 12.43751 12.43751 0 0 1 547.117502 293.83606 Z" fill="#ff6584"/><path d="M700.00812,501.86892a9.32812,9.32812,0,1,1-18.65625,0" transform="translate(-156 -207.2555)" opacity="0.2"/><path d="M681.35187,500.31423a9.32812,9.32812,0,1,1,18.65625,0" transform="translate(-156 -207.2555)" opacity="0.2"/><path d="M 530.79327 289.560669 A 0.77734 1.16602 0 0 1 530.01593 290.726689 A 0.77734 1.16602 0 0 1 529.23859 289.560669 A 0.77734 1.16602 0 0 1 530.01593 288.394649 A 0.77734 1.16602 0 0 1 530.79327 289.560669 Z" fill="#ff6584"/><path d="M 535.457333 288.005981 A 0.77734 1.16602 0 0 1 534.679993 289.172001 A 0.77734 1.16602 0 0 1 533.902653 288.005981 A 0.77734 1.16602 0 0 1 534.679993 286.839961 A 0.77734 1.16602 0 0 1 535.457333 288.005981 Z" fill="#ff6584"/><path d="M 535.457333 298.111481 A 0.77734 1.16602 0 0 1 534.679993 299.277501 A 0.77734 1.16602 0 0 1 533.902653 298.111481 A 0.77734 1.16602 0 0 1 534.679993 296.945461 A 0.77734 1.16602 0 0 1 535.457333 298.111481 Z" fill="#ff6584"/><path d="M 540.121395 291.8927 A 0.77734 1.16602 0 0 1 539.344055 293.05872 A 0.77734 1.16602 0 0 1 538.566715 291.8927 A 0.77734 1.16602 0 0 1 539.344055 290.72668 A 0.77734 1.16602 0 0 1 540.121395 291.8927 Z" fill="#ff6584"/><path d="M 539.344051 300.443512 A 0.77734 1.16602 0 0 1 538.566711 301.609532 A 0.77734 1.16602 0 0 1 537.789371 300.443512 A 0.77734 1.16602 0 0 1 538.566711 299.277492 A 0.77734 1.16602 0 0 1 539.344051 300.443512 Z" fill="#ff6584"/><path d="M 530.015926 296.556793 A 0.77734 1.16602 0 0 1 529.238586 297.722813 A 0.77734 1.16602 0 0 1 528.461246 296.556793 A 0.77734 1.16602 0 0 1 529.238586 295.390773 A 0.77734 1.16602 0 0 1 530.015926 296.556793 Z" fill="#ff6584"/><path d="M 378.031096 246.418076 A 3.29669 3.29669 0 0 1 374.734406 249.714766 A 3.29669 3.29669 0 0 1 371.437716 246.418076 A 3.29669 3.29669 0 0 1 374.734406 243.121386 A 3.29669 3.29669 0 0 1 378.031096 246.418076 Z" fill="#3f3d56"/><path d="M 464.3450012207031 366.0799865722656 L 385.1700134277344 344.12298583984375 L 388.2030029296875 332.85699462890625 L 467.37799072265625 354.81500244140625 L 464.3450012207031 366.0799865722656 Z" fill="#f9a825"/><path d="M608.73806,569.57043a218.26828,218.26828,0,0,1-82.07767,0V557.89212a250.99129,250.99129,0,0,0,82.07767,0Z" transform="translate(-156 -207.2555)" fill="#f9a825"/><path d="M617.17595,534.53552a218.26828,218.26828,0,0,1-82.07767,0V522.85721a250.99184,250.99184,0,0,0,82.07767,0Z" transform="translate(-156 -207.2555)" fill="#f9a825"/><path d="M645.558,548.54948a218.26833,218.26833,0,0,1-82.07768,0v-11.6783a250.9919,250.9919,0,0,0,82.07768,0Z" transform="translate(-156 -207.2555)" fill="#f9a825"/><path d="M652.46168,561.78489a218.26787,218.26787,0,0,1-82.07767,0v-11.6783a250.99184,250.99184,0,0,0,82.07767,0Z" transform="translate(-156 -207.2555)" fill="#f9a825"/><path d="M 520.531005859375 371.8240051269531 L 439.5539855957031 385.4259948730469 L 437.6759948730469 373.90399169921875 L 518.6519775390625 360.302001953125 L 520.531005859375 371.8240051269531 Z" fill="#f9a825"/><path d="M664.43494,580.57677a219.97,219.97,0,0,1-74.58008,34.78439l-4.80446-10.61152a252.95437,252.95437,0,0,0,74.58007-34.78439Z" transform="translate(-156 -207.2555)" fill="#f9a825"/><path d="M657.68866,545.16625a219.96991,219.96991,0,0,1-74.58007,34.78439l-4.80446-10.61152a252.95437,252.95437,0,0,0,74.58007-34.78439Z" transform="translate(-156 -207.2555)" fill="#f9a825"/><path d="M689.24339,545.87182a219.96977,219.96977,0,0,1-74.58008,34.78439l-4.80446-10.61151a252.95471,252.95471,0,0,0,74.58008-34.7844Z" transform="translate(-156 -207.2555)" fill="#f9a825"/><path d="M700.96153,554.97242a219.96991,219.96991,0,0,1-74.58007,34.78439L621.577,579.14529a252.95437,252.95437,0,0,0,74.58007-34.78439Z" transform="translate(-156 -207.2555)" fill="#f9a825"/><path d="M 442.9534 324.92984 H 446.84012 V 328.81656 H 442.9534 V 324.92984 Z" fill="#00bf71"/><path d="M 454.613556 392.558777 H 458.500276 V 396.445497 H 454.613556 V 392.558777 Z" fill="#00bf71"/><path d="M 392.426025 324.92984 H 396.312745 V 328.81656 H 392.426025 V 324.92984 Z" fill="#00bf71"/><path d="M 482.597931 373.125183 H 486.484651 V 377.011903 H 482.597931 V 373.125183 Z" fill="#00bf71"/><path d="M 484.929962 350.582214 H 488.816682 V 354.468934 H 484.929962 V 350.582214 Z" fill="#00bf71"/><path d="M 574.855713 545.400208 H 580.297123 V 548.509588 H 574.855713 V 545.400208 Z" transform="translate(250.70796 -437.19066) rotate(34.15572)" fill="#00bf71"/><path d="M 620.718994 553.950989 H 626.160404 V 557.060369 H 620.718994 V 553.950989 Z" transform="translate(263.41949 -461.46545) rotate(34.15572)" fill="#00bf71"/><path d="M 564.750244 568.72052 H 570.191654 V 571.8299 H 564.750244 V 568.72052 Z" transform="translate(262.05797 -427.49459) rotate(34.15572)" fill="#00bf71"/><path d="M 596.621338 565.611145 H 602.062748 V 568.720525 H 596.621338 V 565.611145 Z" transform="translate(1249.17714 182.37779) rotate(124.15572)" fill="#00bf71"/><path d="M 617.60968 571.052551 H 623.05109 V 574.161931 H 617.60968 V 571.052551 Z" transform="translate(1286.45203 173.50612) rotate(124.15572)" fill="#00bf71"/><path d="M 673.57843 552.396301 H 679.01984 V 555.505681 H 673.57843 V 552.396301 Z" transform="matrix(-0.56144, 0.82751, -0.82751, -0.56144, 1358.40581, 98.06043)" fill="#00bf71"/><path d="M 0 483.248291 H 888 V 485.489011 H 0 V 483.248291 Z" fill="#3f3d56"/></g></svg>